<svg width="22" height="23" viewBox="0 0 22 23" fill="none" xmlns="http://www.w3.org/2000/svg">
<g filter="url(#filter0_d)">
<path d="M17 7.66669C17.0023 8.5466 16.7967 9.41461 16.4 10.2C15.9296 11.1412 15.2065 11.9328 14.3116 12.4862C13.4168 13.0396 12.3855 13.3329 11.3333 13.3334C10.4534 13.3356 9.58541 13.1301 8.8 12.7334L5 14L6.26667 10.2C5.86995 9.41461 5.66437 8.5466 5.66667 7.66669C5.66707 6.61452 5.96041 5.58325 6.51381 4.68839C7.06722 3.79352 7.85884 3.0704 8.8 2.60002C9.58541 2.20331 10.4534 1.99772 11.3333 2.00002H11.6667C13.0562 2.07668 14.3687 2.66319 15.3528 3.64726C16.3368 4.63132 16.9233 5.94379 17 7.33335V7.66669Z" stroke="#2D8EFF" stroke-width="2" stroke-linecap="round" stroke-linejoin="round"/>
</g>
<defs>
<filter id="filter0_d" x="-1" y="0" width="24" height="24" filterUnits="userSpaceOnUse" color-interpolation-filters="sRGB">
<feFlood flood-opacity="0" result="BackgroundImageFix"/>
<feColorMatrix in="SourceAlpha" type="matrix" values="0 0 0 0 0 0 0 0 0 0 0 0 0 0 0 0 0 0 127 0"/>
<feOffset dy="4"/>
<feGaussianBlur stdDeviation="2"/>
<feColorMatrix type="matrix" values="0 0 0 0 0 0 0 0 0 0 0 0 0 0 0 0 0 0 0.25 0"/>
<feBlend mode="normal" in2="BackgroundImageFix" result="effect1_dropShadow"/>
<feBlend mode="normal" in="SourceGraphic" in2="effect1_dropShadow" result="shape"/>
</filter>
</defs>
</svg>
