<svg width="50" height="50" viewBox="0 0 50 50" fill="none" xmlns="http://www.w3.org/2000/svg">
<path fill-rule="evenodd" clip-rule="evenodd" d="M16.5139 18.7351C16.4451 19.2914 16.3764 19.8742 16.3352 20.457C15.2906 21.1589 14.3148 21.8742 13.4076 22.5894C12.9403 22.9603 12.4867 23.3311 12.0607 23.7152C8.70702 20.4172 7.2776 17.4503 8.19848 15.9272C9.0094 14.5762 11.7308 14.1921 15.5517 14.9205C15.7029 14.2848 15.8541 13.6755 16.0328 13.0927C11.4009 12.1921 7.86861 12.7881 6.5354 15C6.17805 15.5828 5.99937 16.245 5.99937 16.947V17.0132C6.02686 20.1523 9.22931 24.351 14.5759 28.3113C15.1257 28.7219 15.7167 29.1325 16.3214 29.543C16.4314 30.8278 16.5963 32.0596 16.8025 33.2119C16.8987 33.7285 16.9949 34.2318 17.1049 34.7219C12.473 35.8742 9.10561 35.5828 8.18473 34.0596C7.37381 32.7086 8.3909 30.2318 10.9474 27.4106L9.61416 26.0596C6.45294 29.5033 5.18845 32.7748 6.52166 35C7.45628 36.5629 9.47671 37.3046 12.1981 37.3046C14.9332 37.3046 18.3694 36.5497 22.1353 35.0795C22.2315 35.0397 22.3278 35 22.4377 34.9603C23.0974 34.6954 23.7572 34.4172 24.4307 34.1126C24.4581 34.0993 24.4856 34.0861 24.5131 34.0728C25.7089 34.6027 26.8909 35.0795 28.0592 35.4901C28.5677 35.6755 29.0763 35.8344 29.5711 35.9934C28.2928 40.4437 26.3411 43.1192 24.5131 43.1192C22.8913 43.1192 21.1732 41.0265 19.9225 37.4503C19.2902 37.6623 18.6717 37.8477 18.0532 38.0066C19.5651 42.3245 21.8604 44.9735 24.5131 44.9735C28.3753 44.9735 31.4541 39.3841 32.5124 31.2384C32.5811 30.6821 32.6361 30.0993 32.6911 29.5298C33.7769 28.8013 34.7939 28.0464 35.7423 27.2781C35.7973 27.2384 35.8523 27.1987 35.9072 27.1457C36.2646 26.8543 36.6082 26.5629 36.9518 26.2583C40.3192 29.543 41.7486 32.5232 40.8278 34.0464C40.0718 35.3046 37.5841 35.7285 34.1755 35.1854C33.9418 35.1457 33.7219 35.106 33.4882 35.0662C33.337 35.6887 33.1859 36.2848 33.0072 36.8676C33.2958 36.9205 33.5844 36.9735 33.8593 37.0132C34.9451 37.1854 35.9485 37.2781 36.8694 37.2781C39.632 37.2781 41.5974 36.4967 42.5046 34.9868C43.7141 32.9735 42.8344 30.0464 40.0168 26.7616C38.5599 25.053 36.6632 23.3311 34.4641 21.6887C33.9006 21.2649 33.3096 20.8543 32.7185 20.4437C32.6086 19.1589 32.4437 17.9272 32.2237 16.7616C32.1275 16.245 32.0313 15.7417 31.9214 15.2517C32.7048 15.053 33.4607 14.894 34.1892 14.7748C37.5978 14.2318 40.0856 14.6556 40.8415 15.9139C41.6387 17.2384 40.6628 19.6623 38.1888 22.4305C38.6699 22.8808 39.1097 23.3311 39.522 23.7682C39.7007 23.5828 39.8656 23.3841 40.0168 23.1987C42.8207 19.9139 43.7141 16.9868 42.5046 14.9735C41.2951 12.9603 38.2301 12.2318 33.8731 12.9338C31.8526 13.2517 29.6398 13.8742 27.3445 14.7219C27.2483 14.7616 27.1658 14.7881 27.0696 14.8278C26.2999 15.1192 25.5302 15.4371 24.7605 15.7815C24.6918 15.8079 24.6231 15.8477 24.5543 15.8742C23.3448 15.3311 22.1491 14.8411 20.9945 14.4305C20.486 14.245 19.9775 14.0861 19.4827 13.9272C20.7609 9.49007 22.7126 6.81457 24.5406 6.81457C26.1624 6.81457 27.8942 8.92053 29.145 12.4967C29.7772 12.298 30.3957 12.1126 31.0142 11.9404C29.4611 7.66225 27.1658 5 24.4994 5C20.6509 5 17.5584 10.5894 16.5139 18.7351ZM28.8014 18.0596C28.7739 18.0331 28.7327 18.0199 28.7052 18.0066C28.0592 17.649 27.3994 17.3046 26.7672 16.9735C26.8222 16.947 26.8772 16.9205 26.9321 16.9073C27.7156 16.5894 28.499 16.298 29.2549 16.0464C29.5161 15.9536 29.7772 15.8742 30.0246 15.7947C30.1346 16.2848 30.2308 16.7748 30.327 17.2914C30.437 17.8874 30.5194 18.4967 30.6019 19.1192C30.0109 18.7616 29.4061 18.404 28.8014 18.0596ZM18.6717 17.3576C18.7679 16.8146 18.8642 16.298 18.9879 15.7947C19.4964 15.9536 20.0049 16.1126 20.5272 16.3113C21.0908 16.5099 21.668 16.7351 22.259 16.9735C21.613 17.3046 20.9533 17.649 20.3073 18.0066C20.2798 18.0199 20.2523 18.0331 20.2249 18.0596C19.6064 18.404 19.0016 18.7616 18.4106 19.1192C18.4931 18.5099 18.5755 17.9272 18.6717 17.3576ZM21.2694 30.3907C20.8021 30.1391 20.3486 29.8742 19.9087 29.6093C19.304 29.2517 18.7267 28.894 18.1632 28.5232C18.0807 27.3974 18.0395 26.2185 18.0395 25C18.0395 24.3642 18.0532 23.7417 18.0807 23.1325C18.1082 22.5629 18.1357 22.0199 18.1769 21.4768C19.1528 20.8411 20.1836 20.2185 21.2694 19.6093C21.6818 19.3709 22.1078 19.1457 22.5202 18.9338C23.1799 18.5894 23.8396 18.2715 24.4994 17.9536C25.5577 18.4437 26.6298 19 27.7293 19.6093C28.1966 19.8742 28.6502 20.1258 29.09 20.3907C29.6948 20.7483 30.272 21.106 30.8356 21.4768C30.918 22.6027 30.9593 23.7815 30.9593 25C30.9593 25.6358 30.9455 26.2583 30.918 26.8676C30.8905 27.4238 30.863 27.9801 30.8218 28.5232C29.846 29.1589 28.8151 29.7815 27.7293 30.3907C27.4407 30.5497 27.1658 30.7086 26.8772 30.8543C26.1487 31.2517 25.4202 31.6093 24.7055 31.9536C24.6368 31.9801 24.5681 32.0199 24.4994 32.0464C23.4273 31.543 22.3415 30.9868 21.2694 30.3907ZM14.4797 25.8477C14.1223 25.5695 13.7925 25.2781 13.4626 25C13.9162 24.6159 14.3835 24.2185 14.8783 23.8344C15.2906 23.5166 15.7167 23.1854 16.1702 22.8675C16.1428 23.3974 16.129 23.9404 16.129 24.4834C16.129 24.6556 16.129 24.8278 16.129 25C16.129 25.7285 16.1428 26.4305 16.1702 27.1325C15.5792 26.7086 15.002 26.2848 14.4797 25.8477ZM32.8835 25.5298C32.8835 25.3576 32.8835 25.1854 32.8835 25C32.8835 24.2715 32.8697 23.5695 32.8422 22.8675C33.4333 23.2914 33.9968 23.7285 34.5328 24.1523C34.8764 24.4305 35.22 24.7219 35.5361 25C35.1788 25.3046 34.8077 25.6225 34.4229 25.9272C34.3679 25.9669 34.3129 26.0199 34.2579 26.0596C33.8044 26.4172 33.3233 26.7881 32.8285 27.1457C32.856 26.6159 32.8835 26.0728 32.8835 25.5298ZM18.6855 32.7086C18.5755 32.1126 18.4931 31.5033 18.4106 30.8808C19.0016 31.2384 19.5926 31.5828 20.2111 31.9272C20.2386 31.9536 20.2798 31.9669 20.3073 31.9801C20.9533 32.3377 21.5993 32.6821 22.259 33.0132C22.259 33.0132 22.2453 33.0132 22.2453 33.0265C21.5581 33.3046 20.8846 33.5563 20.2249 33.7947C20.1286 33.8344 20.0324 33.8609 19.9362 33.9007C19.6201 34.0066 19.304 34.1126 18.9879 34.2053C18.8779 33.7285 18.7817 33.2252 18.6855 32.7086ZM28.4853 33.6887C27.908 33.4768 27.3307 33.2649 26.7397 33.0265C26.8222 32.9868 26.9046 32.947 26.9871 32.9073C27.5506 32.6159 28.1142 32.3113 28.6914 32.0066C28.8564 31.9139 29.0213 31.8212 29.1725 31.7285C29.6535 31.4503 30.1208 31.1722 30.5882 30.894C30.5057 31.4901 30.4232 32.0861 30.327 32.6424C30.2308 33.1854 30.1208 33.702 30.0109 34.2185C29.5161 34.0464 29.0075 33.8742 28.4853 33.6887ZM22.0254 25C22.0254 23.6887 23.1387 22.6159 24.4994 22.6159C25.8601 22.6159 26.9734 23.6887 26.9734 25C26.9734 26.3113 25.8601 27.3841 24.4994 27.3841C23.1387 27.3841 22.0254 26.3113 22.0254 25Z" fill="url(#paint0_linear)"/>
<defs>
<linearGradient id="paint0_linear" x1="9.31623" y1="24.3583" x2="41.8717" y2="25.8396" gradientUnits="userSpaceOnUse">
<stop stop-color="#6B57A5"/>
<stop offset="1" stop-color="#59499E"/>
</linearGradient>
</defs>
</svg>
