<svg width="50" height="50" viewBox="0 0 50 50" fill="none" xmlns="http://www.w3.org/2000/svg">
<g clip-path="url(#clip0)">
<path d="M42.0151 20.6196L39.9952 22.3082L42.0684 24.05L46.1615 20.6196H42.0151Z" fill="#F78D1E"/>
<path fill-rule="evenodd" clip-rule="evenodd" d="M28.8381 17.9539L36.9979 24.8314L34.4094 27.0014L29.0558 20.6197H25.5699L16.2369 31.7114H19.7204L27.3141 22.6905L29.5034 25.3032H26.644L25.1852 27.0425H30.9645L32.6434 29.0431H36.1245L39.071 26.5708L42.02 29.0431H46.1663L32.9845 17.9539H28.8381Z" fill="black"/>
<path d="M18.7408 20.6196L16.6458 26.3796L14.5484 20.6196H11.0697L8.96747 26.3917L6.86767 20.6196H4.03003L7.09507 29.043H10.8399L12.8091 23.6363L14.7782 29.043H18.5134L21.5784 20.6196H18.7408Z" fill="black"/>
<path d="M47.2477 20.5835V20.7286H46.9695V21.4568H46.7953V20.7286H46.5171V20.5835H47.2477ZM48.1887 21.4568L48.1573 20.9439C48.1548 20.8762 48.1548 20.7939 48.15 20.6996H48.1403C48.1186 20.777 48.0919 20.8786 48.0678 20.9584L47.9105 21.4423H47.7315L47.5743 20.9439C47.5573 20.8762 47.5331 20.7746 47.5138 20.6972H47.5041C47.5041 20.777 47.5017 20.8617 47.4968 20.9415L47.4654 21.4544H47.2985L47.3638 20.5811H47.6226L47.7726 21.0068C47.792 21.0746 47.8089 21.1375 47.8307 21.2294H47.8331C47.8549 21.1496 47.8742 21.0746 47.8936 21.0117L48.0436 20.5811H48.2927L48.3605 21.4544H48.1887V21.4568Z" fill="black"/>
</g>
<defs>
<clipPath id="clip0">
<rect width="50" height="50" fill="white"/>
</clipPath>
</defs>
</svg>
