<svg width="50" height="50" viewBox="0 0 50 50" fill="none" xmlns="http://www.w3.org/2000/svg">
<path fill-rule="evenodd" clip-rule="evenodd" d="M26.2604 31.4154V46.2226C26.2604 47.0091 25.7669 47.3854 25.1562 47.0534L16.7812 42.4609C16.1028 42.0039 15.6901 41.2448 15.6705 40.4271V25.957C15.7929 26.056 15.9231 26.1406 16.0599 26.2174L26.2604 31.4154Z" fill="#425CC7"/>
<mask id="mask0" mask-type="alpha" maskUnits="userSpaceOnUse" x="15" y="2" width="20" height="23">
<path d="M34.4688 2.6875H15.6562V24.4687H34.4688V2.6875Z" fill="black"/>
</mask>
<g mask="url(#mask0)">
<path fill-rule="evenodd" clip-rule="evenodd" d="M16.6003 24.3399L33.4141 15.7188C33.9753 15.3646 34.323 14.7513 34.3373 14.0873V3.6081C34.3373 2.95836 33.9206 2.66018 33.4141 2.9193L17.9193 10.8659C16.3204 11.724 15.5808 12.1263 15.6706 13.9388V23.6511C15.6706 24.2683 16.0938 24.6003 16.6003 24.3399Z" fill="#005CB9"/>
</g>
<mask id="mask1" mask-type="alpha" maskUnits="userSpaceOnUse" x="15" y="2" width="20" height="23">
<path d="M34.3359 2.8269H15.6627V24.4298H34.3359V2.8269Z" fill="white"/>
</mask>
<g mask="url(#mask1)">
<path fill-rule="evenodd" clip-rule="evenodd" d="M16.6003 24.3399L33.4141 15.7188C33.9753 15.3646 34.323 14.7513 34.3373 14.0873V3.6081C34.3373 2.95836 33.9206 2.66018 33.4141 2.9193L17.9193 10.8659C16.3204 11.724 15.5808 12.1263 15.6706 13.9388V23.6511C15.6706 24.2683 16.0938 24.6003 16.6003 24.3399Z" fill="#005CB9"/>
</g>
<path fill-rule="evenodd" clip-rule="evenodd" d="M16.6003 12.3464L33.4141 20.9674C33.9766 21.3242 34.3229 21.9388 34.3372 22.6042V33.0768C34.3372 33.7266 33.9206 34.0312 33.4141 33.7721L16.6003 25.1497C16.0365 24.7956 15.6875 24.181 15.6719 23.5143V13.0391C15.6706 12.3997 16.0938 12.0859 16.6003 12.3464Z" fill="#3CB4E5"/>
<path fill-rule="evenodd" clip-rule="evenodd" d="M16.6002 24.3398L28.2942 18.3438L16.6002 12.3477C16.4036 12.2174 16.1471 12.2174 15.9505 12.3477C15.7812 12.6589 15.6849 13.0052 15.6705 13.3607V23.5143C15.677 23.7383 15.7226 23.957 15.8073 24.1654C15.9609 24.4284 16.2994 24.5182 16.5638 24.3633C16.5742 24.3555 16.5872 24.3477 16.6002 24.3398Z" fill="#00A0DF"/>
</svg>
