<svg width="50" height="50" viewBox="0 0 50 50" fill="none" xmlns="http://www.w3.org/2000/svg">
<g clip-path="url(#clip0)">
<path fill-rule="evenodd" clip-rule="evenodd" d="M16.5139 18.7351C16.4452 19.2914 16.3765 19.8742 16.3352 20.457C15.2907 21.1589 14.3148 21.8742 13.4077 22.5894C12.9404 22.9603 12.4868 23.3311 12.0607 23.7152C8.70708 20.4172 7.27766 17.4503 8.19854 15.9272C9.00946 14.5762 11.7309 14.1921 15.5518 14.9205C15.703 14.2848 15.8542 13.6755 16.0329 13.0927C11.401 12.1921 7.86867 12.7881 6.53546 15C6.17811 15.5828 5.99943 16.245 5.99943 16.947V17.0132C6.02692 20.1523 9.22937 24.351 14.576 28.3113C15.1257 28.7219 15.7167 29.1325 16.3215 29.543C16.4315 30.8278 16.5964 32.0596 16.8026 33.2119C16.8988 33.7285 16.995 34.2318 17.1049 34.7219C12.4731 35.8742 9.10567 35.5828 8.1848 34.0596C7.37387 32.7086 8.39096 30.2318 10.9474 27.4106L9.61422 26.0596C6.453 29.5033 5.18851 32.7748 6.52172 35C7.45634 36.5629 9.47677 37.3046 12.1982 37.3046C14.9333 37.3046 18.3694 36.5497 22.1354 35.0795C22.2316 35.0397 22.3278 35 22.4378 34.9603C23.0975 34.6954 23.7572 34.4172 24.4307 34.1126C24.4582 34.0993 24.4857 34.0861 24.5132 34.0728C25.7089 34.6027 26.891 35.0795 28.0592 35.4901C28.5678 35.6755 29.0763 35.8344 29.5711 35.9934C28.2929 40.4437 26.3412 43.1192 24.5132 43.1192C22.8913 43.1192 21.1733 41.0265 19.9225 37.4503C19.2903 37.6623 18.6718 37.8477 18.0533 38.0066C19.5652 42.3245 21.8605 44.9735 24.5132 44.9735C28.3754 44.9735 31.4541 39.3841 32.5124 31.2384C32.5812 30.6821 32.6361 30.0993 32.6911 29.5298C33.7769 28.8013 34.794 28.0464 35.7424 27.2781C35.7974 27.2384 35.8523 27.1987 35.9073 27.1457C36.2647 26.8543 36.6083 26.5629 36.9519 26.2583C40.3193 29.543 41.7487 32.5232 40.8278 34.0464C40.0719 35.3046 37.5841 35.7285 34.1755 35.1854C33.9419 35.1457 33.7219 35.106 33.4883 35.0662C33.3371 35.6887 33.1859 36.2848 33.0072 36.8676C33.2959 36.9205 33.5845 36.9735 33.8594 37.0132C34.9452 37.1854 35.9485 37.2781 36.8694 37.2781C39.6321 37.2781 41.5975 36.4967 42.5046 34.9868C43.7141 32.9735 42.8345 30.0464 40.0169 26.7616C38.56 25.053 36.6633 23.3311 34.4641 21.6887C33.9006 21.2649 33.3096 20.8543 32.7186 20.4437C32.6086 19.1589 32.4437 17.9272 32.2238 16.7616C32.1276 16.245 32.0314 15.7417 31.9214 15.2517C32.7049 15.053 33.4608 14.894 34.1893 14.7748C37.5979 14.2318 40.0856 14.6556 40.8416 15.9139C41.6387 17.2384 40.6629 19.6623 38.1889 22.4305C38.6699 22.8808 39.1098 23.3311 39.5221 23.7682C39.7008 23.5828 39.8657 23.3841 40.0169 23.1987C42.8208 19.9139 43.7141 16.9868 42.5046 14.9735C41.2951 12.9603 38.2301 12.2318 33.8731 12.9338C31.8527 13.2517 29.6399 13.8742 27.3445 14.7219C27.2483 14.7616 27.1659 14.7881 27.0696 14.8278C26.3 15.1192 25.5303 15.4371 24.7606 15.7815C24.6919 15.8079 24.6231 15.8477 24.5544 15.8742C23.3449 15.3311 22.1491 14.8411 20.9946 14.4305C20.4861 14.245 19.9775 14.0861 19.4827 13.9272C20.7609 9.49007 22.7127 6.81457 24.5407 6.81457C26.1625 6.81457 27.8943 8.92053 29.1451 12.4967C29.7773 12.298 30.3958 12.1126 31.0143 11.9404C29.4612 7.66225 27.1659 5 24.4994 5C20.651 5 17.5585 10.5894 16.5139 18.7351ZM28.8014 18.0596C28.774 18.0331 28.7327 18.0199 28.7052 18.0066C28.0592 17.649 27.3995 17.3046 26.7673 16.9735C26.8222 16.947 26.8772 16.9205 26.9322 16.9073C27.7156 16.5894 28.4991 16.298 29.255 16.0464C29.5161 15.9536 29.7773 15.8742 30.0247 15.7947C30.1346 16.2848 30.2309 16.7748 30.3271 17.2914C30.437 17.8874 30.5195 18.4967 30.602 19.1192C30.011 18.7616 29.4062 18.404 28.8014 18.0596ZM18.6718 17.3576C18.768 16.8146 18.8642 16.298 18.9879 15.7947C19.4965 15.9536 20.005 16.1126 20.5273 16.3113C21.0908 16.5099 21.6681 16.7351 22.2591 16.9735C21.6131 17.3046 20.9534 17.649 20.3074 18.0066C20.2799 18.0199 20.2524 18.0331 20.2249 18.0596C19.6064 18.404 19.0017 18.7616 18.4107 19.1192C18.4931 18.5099 18.5756 17.9272 18.6718 17.3576ZM21.2695 30.3907C20.8022 30.1391 20.3486 29.8742 19.9088 29.6093C19.304 29.2517 18.7268 28.894 18.1633 28.5232C18.0808 27.3974 18.0396 26.2185 18.0396 25C18.0396 24.3642 18.0533 23.7417 18.0808 23.1325C18.1083 22.5629 18.1358 22.0199 18.177 21.4768C19.1529 20.8411 20.1837 20.2185 21.2695 19.6093C21.6818 19.3709 22.1079 19.1457 22.5202 18.9338C23.18 18.5894 23.8397 18.2715 24.4994 17.9536C25.5578 18.4437 26.6298 19 27.7294 19.6093C28.1967 19.8742 28.6503 20.1258 29.0901 20.3907C29.6948 20.7483 30.2721 21.106 30.8356 21.4768C30.9181 22.6027 30.9593 23.7815 30.9593 25C30.9593 25.6358 30.9456 26.2583 30.9181 26.8676C30.8906 27.4238 30.8631 27.9801 30.8219 28.5232C29.846 29.1589 28.8152 29.7815 27.7294 30.3907C27.4407 30.5497 27.1659 30.7086 26.8772 30.8543C26.1488 31.2517 25.4203 31.6093 24.7056 31.9536C24.6369 31.9801 24.5682 32.0199 24.4994 32.0464C23.4274 31.543 22.3416 30.9868 21.2695 30.3907ZM14.4797 25.8477C14.1224 25.5695 13.7925 25.2781 13.4627 25C13.9162 24.6159 14.3835 24.2185 14.8783 23.8344C15.2907 23.5166 15.7167 23.1854 16.1703 22.8675C16.1428 23.3974 16.1291 23.9404 16.1291 24.4834C16.1291 24.6556 16.1291 24.8278 16.1291 25C16.1291 25.7285 16.1428 26.4305 16.1703 27.1325C15.5793 26.7086 15.002 26.2848 14.4797 25.8477ZM32.8835 25.5298C32.8835 25.3576 32.8835 25.1854 32.8835 25C32.8835 24.2715 32.8698 23.5695 32.8423 22.8675C33.4333 23.2914 33.9968 23.7285 34.5329 24.1523C34.8765 24.4305 35.2201 24.7219 35.5362 25C35.1789 25.3046 34.8078 25.6225 34.4229 25.9272C34.3679 25.9669 34.313 26.0199 34.258 26.0596C33.8044 26.4172 33.3234 26.7881 32.8286 27.1457C32.856 26.6159 32.8835 26.0728 32.8835 25.5298ZM18.6855 32.7086C18.5756 32.1126 18.4931 31.5033 18.4107 30.8808C19.0017 31.2384 19.5927 31.5828 20.2112 31.9272C20.2387 31.9536 20.2799 31.9669 20.3074 31.9801C20.9534 32.3377 21.5994 32.6821 22.2591 33.0132C22.2591 33.0132 22.2453 33.0132 22.2453 33.0265C21.5581 33.3046 20.8846 33.5563 20.2249 33.7947C20.1287 33.8344 20.0325 33.8609 19.9363 33.9007C19.6202 34.0066 19.304 34.1126 18.9879 34.2053C18.878 33.7285 18.7818 33.2252 18.6855 32.7086ZM28.4853 33.6887C27.9081 33.4768 27.3308 33.2649 26.7398 33.0265C26.8222 32.9868 26.9047 32.947 26.9872 32.9073C27.5507 32.6159 28.1142 32.3113 28.6915 32.0066C28.8564 31.9139 29.0214 31.8212 29.1725 31.7285C29.6536 31.4503 30.1209 31.1722 30.5882 30.894C30.5057 31.4901 30.4233 32.0861 30.3271 32.6424C30.2309 33.1854 30.1209 33.702 30.011 34.2185C29.5161 34.0464 29.0076 33.8742 28.4853 33.6887ZM22.0254 25C22.0254 23.6887 23.1387 22.6159 24.4994 22.6159C25.8601 22.6159 26.9734 23.6887 26.9734 25C26.9734 26.3113 25.8601 27.3841 24.4994 27.3841C23.1387 27.3841 22.0254 26.3113 22.0254 25Z" fill="url(#paint0_linear)"/>
</g>
<defs>
<linearGradient id="paint0_linear" x1="9.31629" y1="24.3583" x2="41.8717" y2="25.8396" gradientUnits="userSpaceOnUse">
<stop stop-color="#6B57A5"/>
<stop offset="1" stop-color="#59499E"/>
</linearGradient>
<clipPath id="clip0">
<rect width="37" height="40" fill="white" transform="translate(6 5)"/>
</clipPath>
</defs>
</svg>
