<svg width="50" height="50" viewBox="0 0 50 50" fill="none" xmlns="http://www.w3.org/2000/svg">
<g clip-path="url(#clip0)">
<path d="M42.0151 20.6196L39.9952 22.3082L42.0684 24.05L46.1615 20.6196H42.0151Z" fill="#F78D1E"/>
<path fill-rule="evenodd" clip-rule="evenodd" d="M28.8382 17.9538L36.9979 24.8313L34.4094 27.0013L29.0559 20.6196H25.5699L16.2369 31.7113H19.7205L27.3141 22.6904L29.5034 25.3031H26.644L25.1853 27.0424H30.9646L32.6434 29.043H36.1246L39.0711 26.5707L42.02 29.043H46.1664L32.9845 17.9538H28.8382Z" fill="black"/>
<path d="M18.7407 20.6196L16.6458 26.3796L14.5484 20.6196H11.0697L8.96744 26.3917L6.86764 20.6196H4.03L7.09504 29.043H10.8398L12.809 23.6363L14.7782 29.043H18.5133L21.5784 20.6196H18.7407Z" fill="black"/>
<path d="M47.2477 20.5834V20.7285H46.9695V21.4567H46.7954V20.7285H46.5172V20.5834H47.2477ZM48.1888 21.4567L48.1573 20.9438C48.1549 20.8761 48.1549 20.7938 48.1501 20.6995H48.1404C48.1186 20.7769 48.092 20.8785 48.0678 20.9583L47.9106 21.4421H47.7316L47.5743 20.9438C47.5574 20.8761 47.5332 20.7745 47.5138 20.697H47.5042C47.5042 20.7769 47.5017 20.8616 47.4969 20.9414L47.4654 21.4542H47.2985L47.3638 20.5809H47.6227L47.7727 21.0067C47.792 21.0744 47.809 21.1373 47.8307 21.2293H47.8332C47.8549 21.1494 47.8743 21.0744 47.8936 21.0115L48.0436 20.5809H48.2928L48.3605 21.4542H48.1888V21.4567Z" fill="black"/>
</g>
<defs>
<clipPath id="clip0">
<rect width="50" height="50" fill="white"/>
</clipPath>
</defs>
</svg>
