<svg width="68" height="66" viewBox="0 0 68 66" fill="none" xmlns="http://www.w3.org/2000/svg">
<path fill-rule="evenodd" clip-rule="evenodd" d="M2.0431 43.1081C0.306233 41.8462 -0.420543 39.6094 0.242881 37.5676L11.3367 3.42422C12.0002 1.38241 13.9029 0 16.0498 0H51.9502C54.0971 0 55.9998 1.38241 56.6633 3.42422L67.7571 37.5676C68.4205 39.6094 67.6938 41.8462 65.9569 43.1081L36.9128 64.2099C35.1759 65.4718 32.8241 65.4718 31.0872 64.2099L2.0431 43.1081ZM30.5401 4.94531L31.0074 8.22142L26.5619 5.86015C26.4898 5.82187 26.4006 5.84785 26.3599 5.91898C26.3211 5.98672 26.3393 6.07307 26.402 6.11908L30.9532 9.45699L30.85 9.81736C30.4645 11.1647 29.5614 12.29 28.3563 12.9539C28.0701 13.1115 27.9591 13.4875 28.1489 13.7549L29.3199 15.4042C30.6675 15.1939 31.933 14.6177 32.9806 13.7373L32.9978 13.7229C33.5473 15.8082 32.6386 18.0055 30.7827 19.0792L28.2483 20.5455L26.0591 18.9808C25.5678 18.6297 24.8963 18.6903 24.4747 19.124L21.5978 22.0836C21.3727 22.3152 21.2092 22.6002 21.1223 22.9124L20.2967 25.878L20.3226 26.05C16.8249 27.3371 12.633 26.7884 9.72716 24.4039L4.95282 39.0978L33.9969 60.1996L63.041 39.0978L58.0495 23.7357C57.5912 23.7667 57.1406 23.9417 56.7702 24.2605C52.9501 27.5489 46.7564 27.5489 42.9363 24.2605C42.1154 23.554 40.9013 23.554 40.0805 24.2605C39.1407 25.0695 38.0573 25.6794 36.901 26.0903L39.8331 21.0193C39.9027 20.8988 39.9694 20.7778 40.0332 20.6564L42.9802 19.1388L42.2854 18.2267C41.1435 16.7275 41.155 14.6384 42.3133 13.152L42.9802 12.2962C41.1197 11.6631 39.952 9.78441 40.2137 7.82196L40.3444 6.84169L39.7857 7.00459C38.2801 7.44353 36.7234 6.49386 36.4101 4.94531L36.1418 5.15876C34.8576 6.18033 33.0942 6.33472 31.6547 5.55162L30.5401 4.94531ZM25.982 24.0652C24.6134 27.9012 25.3205 32.2996 28.0733 35.5364L29.4581 37.1647L29.447 37.1776L34.9912 43.663L34.9875 43.6663L35.3838 44.1322C36.3019 45.2119 35.5413 46.8803 34.1309 46.8803C32.7387 46.8803 31.9814 45.256 32.8409 44.1772L28.1481 38.6877L27.5123 39.4269C22.592 45.1475 26.6215 54.0508 34.1309 54.0508C41.6172 54.0508 45.6549 45.1947 40.7813 39.4642L40.7226 39.4007L37.6403 36.2647C36.1017 34.6993 35.3522 32.5134 35.6034 30.3239L35.6055 30.3241C35.7021 28.8616 36.1305 27.4228 36.8806 26.1256L36.901 26.0903C33.3567 27.3499 29.1269 26.7399 26.2465 24.2605C26.1622 24.188 26.0737 24.1229 25.982 24.0652ZM22.4669 24.9624L22.3971 25.4142L23.208 26.284C23.3528 26.4394 23.3253 26.6886 23.15 26.808L21.139 28.1777C20.9301 28.32 20.6454 28.1942 20.6075 27.9428L20.3226 26.05C21.0762 25.7727 21.7976 25.4102 22.4669 24.9624ZM22.4669 24.9624C22.7874 24.748 23.0961 24.514 23.3906 24.2605C24.1271 23.6265 25.1804 23.5614 25.982 24.0652L25.9945 24.0302L25.2064 21.7868L22.7285 23.2696L22.4669 24.9624ZM37.5223 31.3885C37.5723 32.5417 37.9968 33.6514 38.7355 34.5423L40.8601 31.9541C42.7481 32.4325 44.6999 32.6264 46.6516 32.5258L46.8634 32.5149C47.148 32.5003 47.157 32.0797 46.8733 32.0527L46.7664 32.0424C45.0374 31.8775 44.2137 29.8133 45.3474 28.4867L45.9354 27.7986C46.1202 27.5824 45.8498 27.2769 45.6159 27.4375C44.0859 28.4882 42.036 27.2576 42.2226 25.4005L42.2409 25.219C42.2708 24.9215 41.8475 24.8381 41.7642 25.1252L41.5323 25.9241C41.1161 27.3583 40.5191 28.7303 39.7576 30.007L37.5223 31.3885ZM22.1655 9.57678C21.4282 9.65192 20.6698 10.1613 20.15 10.6708C19.6241 11.1959 19.099 11.9683 19.0204 12.7215C18.9426 11.9709 18.4193 11.2003 17.8959 10.676C17.3752 10.164 16.6152 9.6528 15.8752 9.57678C16.6248 9.49989 17.3953 8.97736 17.9187 8.45484C18.4315 7.93319 18.9443 7.173 19.0204 6.43115C19.0972 7.17999 19.6188 7.94892 20.1395 8.47231C20.6611 8.98697 21.4229 9.50076 22.1655 9.57678ZM50.3648 17.5616C50.784 17.1508 51.3955 16.74 51.9902 16.6794C51.3913 16.6181 50.7769 16.2037 50.3563 15.7887C49.9364 15.3666 49.5158 14.7465 49.4538 14.1426C49.3925 14.7408 48.9789 15.3539 48.5653 15.7746C48.1433 16.196 47.5218 16.6174 46.9173 16.6794C47.5141 16.7407 48.1271 17.1529 48.547 17.5658C48.969 17.9886 49.3911 18.6102 49.4538 19.2155C49.5172 18.608 49.9406 17.9851 50.3648 17.5616Z" fill="#B7C1CB"/>
</svg>
